<?xml version="1.0" standalone="no"?>
<!DOCTYPE svg PUBLIC "-//W3C//DTD SVG 20010904//EN"
 "http://www.w3.org/TR/2001/REC-SVG-20010904/DTD/svg10.dtd">
<svg version="1.0" xmlns="http://www.w3.org/2000/svg"
 width="1280.000000pt" height="1280.000000pt" viewBox="0 0 1280.000000 1280.000000"
 preserveAspectRatio="xMidYMid meet">
<metadata>
Created by potrace 1.15, written by Peter Selinger 2001-2017
</metadata>
<g transform="translate(0.000000,1280.000000) scale(0.100000,-0.100000)"
fill="#000000" stroke="none">
<path d="M5910 12704 c-19 -2 -84 -9 -145 -15 -470 -46 -936 -180 -1370 -394
-1047 -518 -1768 -1450 -1945 -2512 -69 -416 -51 -889 51 -1298 79 -320 181
-558 427 -993 524 -928 867 -1663 1104 -2362 164 -484 248 -875 268 -1245 9
-175 45 -506 61 -570 35 -135 148 -294 248 -348 106 -58 61 -57 1591 -57 1508
0 1480 -1 1581 50 106 54 183 148 238 290 26 67 35 114 55 297 13 120 27 277
30 348 31 634 313 1511 820 2550 176 361 390 760 568 1059 87 147 160 285 218
416 329 740 377 1566 133 2315 -290 893 -961 1640 -1867 2076 -409 197 -822
316 -1291 375 -122 15 -684 28 -775 18z"/>
<path d="M4732 2715 c-98 -27 -171 -81 -219 -162 -35 -60 -42 -159 -18 -234
31 -93 143 -185 250 -205 l38 -7 -56 -17 c-157 -49 -247 -158 -247 -300 0 -80
25 -138 83 -199 44 -45 145 -101 185 -101 12 0 22 -4 22 -10 0 -5 -10 -10 -22
-10 -13 0 -50 -13 -83 -29 -165 -79 -230 -248 -155 -399 36 -71 82 -115 160
-151 l55 -26 1480 0 1480 0 47 22 c64 30 134 97 166 158 35 68 37 168 4 240
-41 89 -171 185 -252 185 -11 0 -20 5 -20 10 0 6 9 10 20 10 81 0 211 96 252
185 33 72 31 172 -4 240 -46 88 -128 151 -236 180 -26 7 -37 14 -25 14 49 2
135 44 187 92 72 66 99 124 100 214 1 123 -65 218 -192 278 l-67 32 -1440 2
c-1221 2 -1448 0 -1493 -12z"/>
<path d="M5110 734 c0 -16 79 -101 148 -160 185 -158 400 -263 642 -316 148
-32 390 -36 548 -9 295 50 544 175 753 378 54 53 99 100 99 105 0 4 -493 8
-1095 8 -602 0 -1095 -3 -1095 -6z"/>
</g>
</svg>
